<svg height="501pt" viewBox="-36 0 501 501.15106" width="501pt" xmlns="http://www.w3.org/2000/svg"><path d="m313.640625 359.460938 62.78125-46.949219c13.734375-10.851563 33.574219-8.984375 45.046875 4.238281l-122.597656 120.039062c-17.15625 12.589844-37.910156 19.320313-59.191406 19.191407l-102.929688-7.53125c-9.472656-.691407-18.847656 2.308593-26.160156 8.371093l-18.191406 14.769532-17.417969-99.601563.808593-.136719c24.898438-26.597656 62.574219-37.046874 97.609376-27.070312l1.902343.539062 4.527344 1.289063c10.078125 2.867187 20.671875 3.421875 30.992187 1.621094l3.210938-.558594 38.789062-6.792969 15.558594-2.71875c18.070313-3.164062 36.179688 5.359375 45.261719 21.300782zm0 0" fill="#f7caa5"/><path d="m257.191406 197.609375-.421875 13.390625h-86.097656v7.558594c0 9.589844-7.570313 17.730468-17.160156 17.839844h-.191407c-9.589843.007812-17.367187-7.761719-17.371093-17.347657v-86.730469c-.910157-9.195312 2.101562-18.347656 8.300781-25.203124 6.195312-6.855469 15-10.769532 24.238281-10.789063h17.582031l27.878907 27.121094 28.902343-27.121094h16.570313c1.097656 0 2.1875.0625 3.289063.171875 17.960937 1.824219 31.042968 17.859375 29.230468 35.820312v86.71875c0 9.597657-7.78125 17.375-17.375 17.375-9.597656 0-17.375-7.777343-17.375-17.375zm0 0" fill="#fedb41"/><path d="m214.03125 347.671875-3.210938.558594c-10.320312 1.800781-20.914062 1.246093-30.992187-1.621094l-4.527344-1.289063.179688-.640624-4.191407-133.679688h85.480469l-4.050781 129.300781.101562.578125zm0 0" fill="#00efd1"/><path d="m244.308594 38.5v12.578125c0 17.378906-14.085938 31.46875-31.464844 31.46875-17.375 0-31.464844-14.089844-31.464844-31.46875v-12.578125c0-17.378906 14.089844-31.464844 31.464844-31.464844 17.378906 0 31.464844 14.085938 31.464844 31.464844zm0 0" fill="#fedb41"/><path d="m92.398438 471.589844 2.023437 11.519531-63.121094 11.039063-24.230469-138.507813 63.121094-11.050781 4.789063 27.398437zm0 0" fill="#00efd1"/><g fill="#083863"><path d="m212.828125 89.550781c21.230469-.027343 38.429687-17.242187 38.441406-38.472656v-12.578125c0-21.261719-17.238281-38.5-38.5-38.5s-38.5 17.238281-38.5 38.5v12.578125c.046875 21.265625 17.296875 38.476563 38.558594 38.472656zm-24.558594-51.050781c0-13.53125 10.96875-24.5 24.5-24.5s24.5 10.96875 24.5 24.5v12.578125c0 13.53125-10.96875 24.5-24.5 24.5s-24.5-10.96875-24.5-24.5zm0 0"/><path d="m24.40625 495.355469c.582031 3.347656 3.488281 5.792969 6.886719 5.796875.40625 0 .8125-.03125 1.214843-.101563l63.117188-11.039062c3.8125-.667969 6.359375-4.296875 5.691406-8.105469l-1.308594-7.472656 15.050782-12.21875c5.914062-4.921875 13.507812-7.355469 21.179687-6.777344l102.933594 7.523438c.363281.027343.730469.019531 1.097656.019531 22.558594-.046875 44.523438-7.242188 62.742188-20.546875.269531-.195313.519531-.410156.757812-.640625l122.597657-120.039063c2.648437-2.59375 2.816406-6.792968.390624-9.589844-13.882812-16.050781-37.933593-18.34375-54.601562-5.207031l-56.855469 42.519531c-11.53125-14.382812-29.96875-21.359374-48.128906-18.210937l-7.210937 1.257813 2.886718-92.117188c3.644532 1.972656 7.726563 3.003906 11.871094 3 13.488281.003906 24.453125-10.878906 24.550781-24.367188v-86.382812c1.882813-21.71875-14.078125-40.898438-35.777343-42.992188-1.355469-.09375-2.714844-.117187-4.070313-.074218h-16.570313c-1.765624-.046875-3.480468.585937-4.792968 1.765625l-24.023438 22.480469-23.085937-22.359376c-1.316407-1.246093-3.066407-1.921874-4.878907-1.886718h-17.582031c-10.492187-.011719-20.558593 4.152344-27.976562 11.574218-7.421875 7.421876-11.578125 17.492188-11.5625 27.984376 0 1.234374.320312 2.324218.320312 3.5v86.40625c0 13.433593 10.617188 24.535156 24.023438 24.535156h.300781c4.09375-.058594 8.097656-1.1875 11.613281-3.28125l3.011719 96.027344c-31.339844-6.671876-64 1.515624-88.484375 22.183593l-2.644531-15.125c-.316406-1.828125-1.351563-3.457031-2.871094-4.527343-1.519531-1.070313-3.398438-1.492188-5.230469-1.171876l-63.121093 11.046876c-3.804688.667968-6.351563 4.292968-5.6875 8.101562zm196.863281-156.019531v-88.027344c0-3.863282-3.132812-7-7-7-3.867187 0-7 3.136718-7 7v90.402344c-8.3125 1-16.746093.359374-24.8125-1.886719l-3.945312-122.234375h71.035156l-3.542969 117.195312zm-58-120.777344c0 5.914062-4.191406 11.03125-9.757812 11.03125h-.210938c-2.730469-.058594-5.324219-1.207032-7.207031-3.183594-1.882812-1.980469-2.898438-4.625-2.824219-7.355469v-86.730469c0-.234374-.171875-.46875-.195312-.699218-.113281-.820313-.179688-1.644532-.203125-2.472656-.003906-6.789063 2.695312-13.300782 7.503906-18.097657 4.804688-4.796875 11.324219-7.480469 18.113281-7.460937h14.738281l25.84375 25.007812c.046876.042969.101563.015625.144532.0625.089844.082032.183594.136719.28125.214844s.171875.121094.261718.1875c.089844.066406.199219.136719.300782.207031.097656.066407.1875.117188.28125.175781.097656.058594.199218.117188.300781.171876.101563.054687.207031.105468.308594.15625.105469.046874.203125.089843.300781.132812.101562.042969.222656.089844.335938.128906.109374.039063.199218.070313.300781.101563.113281.035156.230469.066406.347656.097656.101563.027344.203125.050781.300781.070313.121094.023437.238282.046874.359375.0625.101563.015624.203125.03125.304688.039062.121093.015625.242187.023438.363281.03125.097656.003906.207031.007812.308594.007812.121094 0 .238281 0 .359375-.003906.117187-.007812.210937-.011718.316406-.019531s.230469-.023437.347656-.039063c.117188-.015624.214844-.03125.320313-.050781.105468-.019531.226562-.046875.339844-.070312.109374-.027344.210937-.054688.316406-.082031.105468-.03125.222656-.070313.332031-.105469.113281-.039063.207031-.074219.308594-.113281.101562-.039063.222656-.089844.328125-.140626.109375-.046874.199218-.089843.296875-.140624.09375-.046876.210937-.113282.316406-.175782.109375-.0625.1875-.109375.277344-.167968.09375-.058594.207031-.140626.308593-.214844.101563-.070313.179688-.128906.265626-.199219.085937-.070313.191406-.15625.285156-.238281.046875-.042969.097656.046875.144531 0l26.886719-25.09375h13.800781c.859375-.042969 1.722656-.042969 2.582031 0 14.09375 1.433594 24.410156 13.941406 23.136719 28.050781-.023437.238281.128906.4375.128906.675781v86.71875c0 5.800782-4.699219 10.5-10.5 10.5-5.796875 0-10.5-4.699218-10.5-10.5v-21.3125l.101563-3.085937c.015625-.476563-.101563-.945313-.101563-1.398438v-38.9375c0-3.867187-3.132812-7-7-7-3.863281 0-7 3.132813-7 7v43.207031l-.28125 6.082032h-71.917969l-.507812-9.59375c-.011719-.3125-.300781-.410156-.300781-.710938v-38.984375c0-3.867187-3.132813-7-7-7-3.867188 0-7 3.132813-7 7zm8.21875 132.953125 6.425781 1.832031c11.09375 3.140625 22.75 3.75 34.109376 1.78125l3.21875-.5625c.085937-.015625.167968-.027344.25-.042969l54.09375-9.464843c15.15625-2.628907 30.335937 4.515624 37.972656 17.871093.90625 1.59375 1.691406 3.257813 2.347656 4.972657l-87.0625 15.226562c-3.808594.667969-6.355469 4.292969-5.6875 8.101562.664062 3.808594 4.292969 6.355469 8.101562 5.6875l94.617188-16.550781c3.8125-.664062 6.359375-4.292969 5.691406-8.105469-.640625-3.65625-1.679687-7.230468-3.101562-10.660156l58.152344-43.480468.144531-.113282c8.835937-7 21.207031-7.429687 30.507812-1.058594l-116.933593 114.292969c-15.757813 11.308594-34.671876 17.378907-54.066407 17.351563h-.316406l-102.699219-7.316406c-11.265625-.8125-22.40625 2.777343-31.078125 10.015624l-8.933593 7.300782-14.652344-83.734375c23.113281-23.488281 57.226562-32.445313 88.898437-23.34375zm-107.101562 1.179687 20.882812 120.105469.929688 4.621094-49.269531 8.628906-21.847657-124.71875zm0 0"/></g></svg>