<svg height="496pt" viewBox="0 0 496 496" width="496pt" xmlns="http://www.w3.org/2000/svg"><path d="m456 280h-8c0-13.230469-10.769531-24-24-24-6.167969 0-11.742188 2.40625-16 6.238281-2.3125-2.085937-5.007812-3.703125-8-4.765625v-185.472656c0-13.230469-10.769531-24-24-24h-40v-32c0-8.824219-7.175781-16-16-16h-16c-8.824219 0-16 7.175781-16 16v32h-16v-32c0-8.824219-7.175781-16-16-16h-16c-8.824219 0-16 7.175781-16 16v32h-48v-32c0-8.824219-7.175781-16-16-16h-16c-8.824219 0-16 7.175781-16 16v32h-16v-32c0-8.824219-7.175781-16-16-16h-16c-8.824219 0-16 7.175781-16 16v32h-40c-13.230469 0-24 10.769531-24 24v288c0 13.230469 10.769531 24 24 24h248v6.3125c0 7.917969 2.328125 15.589844 6.71875 22.183594l9.28125 13.917968v5.585938h-16v64h176v-64h-16v-16.449219c0-3.703125.871094-7.414062 2.535156-10.734375l9.242188-18.488281c2.757812-5.519531 4.222656-11.703125 4.222656-17.878906v-8.449219h8c22.054688 0 40-17.945312 40-40s-17.945312-40-40-40zm-77.359375 64h-122.640625v-16h22.238281c4.394531 4.871094 10.699219 8 17.761719 8 6.167969 0 11.742188-2.40625 16-6.238281 4.257812 3.839843 9.832031 6.238281 16 6.238281s11.742188-2.40625 16-6.238281c4.257812 3.839843 9.832031 6.238281 16 6.238281s11.742188-2.40625 16-6.238281c2.710938 2.445312 5.96875 4.246093 9.585938 5.261719-2.59375 2.785156-4.882813 5.800781-6.945313 8.976562zm-282.640625-19.3125-36.6875-36.6875h36.6875zm-48-52.6875v-112h304v97.472656c-2.992188 1.0625-5.6875 2.6875-8 4.765625-4.257812-3.839843-9.832031-6.238281-16-6.238281s-11.742188 2.40625-16 6.238281c-4.257812-3.839843-9.832031-6.238281-16-6.238281-13.230469 0-24 10.769531-24 24h-26.425781l-60 40 24 16h-97.574219v-64zm320 40c0 4.40625-3.59375 8-8 8s-8-3.59375-8-8v-32c0-4.40625 3.59375-8 8-8s8 3.59375 8 8zm-48-32c0-4.40625 3.59375-8 8-8s8 3.59375 8 8v32c0 4.40625-3.59375 8-8 8s-8-3.59375-8-8zm-16 32c0 4.40625-3.59375 8-8 8s-8-3.59375-8-8v-32c0-4.40625 3.59375-8 8-8s8 3.59375 8 8zm-48-16h16v16h-16zm-41.574219 24 25.574219-17.054688v34.101563zm177.574219-48c4.40625 0 8 3.59375 8 8v40h-8c-4.40625 0-8-3.59375-8-8v-32c0-4.40625 3.59375-8 8-8zm-88-256h16l.007812 64h-16.007812zm-64 0h16l.007812 64h-16.007812zm-96 0h16l.007812 64h-16.007812zm-64 0h16l.007812 64h-16.007812zm-56 48h40v16c0 8.824219 7.175781 16 16 16h16c8.824219 0 16-7.175781 16-16v-16h16v16c0 8.824219 7.175781 16 16 16h16c8.824219 0 16-7.175781 16-16v-16h48v16c0 8.824219 7.175781 16 16 16h16c8.824219 0 16-7.175781 16-16v-16h16v16c0 8.824219 7.175781 16 16 16h16c8.824219 0 16-7.175781 16-16v-16h40c4.40625 0 8 3.59375 8 8v40h-368v-40c0-4.40625 3.59375-8 8-8zm0 304c-4.40625 0-8-3.59375-8-8v-232h368v129.472656c-2.992188 1.0625-5.6875 2.6875-8 4.765625-2.3125-2.085937-5.007812-3.703125-8-4.765625v-113.472656h-336v139.3125l68.6875 68.6875h132.886719l12 8h26.425781v8zm408 112h-144v-32h144zm0-111.550781c0 3.703125-.871094 7.414062-2.535156 10.734375l-9.242188 18.488281c-2.757812 5.519531-4.222656 11.703125-4.222656 17.878906v16.449219h-112v-10.425781l-11.96875-17.949219c-2.640625-3.960938-4.03125-8.5625-4.03125-13.3125v-30.3125h83.121094c-1.96875 6.296875-3.121094 12.921875-3.121094 19.777344v20.222656h16v-20.222656c0-18.457032 10.007812-35.042969 26.144531-43.777344h5.855469v-56c0-4.40625 3.59375-8 8-8s8 3.59375 8 8zm24-24.449219h-8v-48h8c13.230469 0 24 10.769531 24 24s-10.769531 24-24 24zm0 0"/><path d="m320 176h16v16h-16zm0 0"/><path d="m288 176h16v16h-16zm0 0"/><path d="m256 176h16v16h-16zm0 0"/><path d="m64 176h16v16h-16zm0 0"/><path d="m96 176h16v16h-16zm0 0"/><path d="m128 176h16v16h-16zm0 0"/></svg>