<svg height="512" viewBox="0 0 64 64" width="512" xmlns="http://www.w3.org/2000/svg"><g id="_01_Stethoscope" data-name="01 Stethoscope"><g fill="#4370ff"><circle cx="12.463" cy="6.913" r="3.913"/><circle cx="31.872" cy="6.913" r="3.913"/><circle cx="55" cy="12.114" r="6"/></g><path d="m57 4.377v4.293a4 4 0 1 1 -4 0v-4.293a7.988 7.988 0 0 0 0 15.473v24.757a14.385 14.385 0 0 1 -28.736.989h7.548a11.629 11.629 0 0 0 11.617-11.616v-17.4a11.623 11.623 0 0 0 -5.66-9.967 5.914 5.914 0 1 0 -1.274 3.98 7.61 7.61 0 0 1 2.934 5.987v17.4a7.625 7.625 0 0 1 -7.617 7.62h-19.2a7.625 7.625 0 0 1 -7.612-7.62v-17.4a7.626 7.626 0 0 1 2.875-5.941 5.914 5.914 0 1 0 -1.312-3.972 11.643 11.643 0 0 0 -5.563 9.909v17.4a11.629 11.629 0 0 0 11.616 11.624h7.648a18.381 18.381 0 0 0 36.736-.993v-24.757a7.988 7.988 0 0 0 0-15.473zm-25.128 4.449a1.913 1.913 0 1 1 1.913-1.913 1.916 1.916 0 0 1 -1.913 1.913zm-19.409-3.826a1.913 1.913 0 1 1 -1.913 1.913 1.915 1.915 0 0 1 1.913-1.913z"/></g></svg>